<svg width="200" height="71" viewBox="0 0 200 71" fill="none" xmlns="http://www.w3.org/2000/svg">
<g clip-path="url(#clip0_301_2)">
<path fill-rule="evenodd" clip-rule="evenodd" d="M124.521 0L153.111 44.2482C153.111 44.2482 130.186 41.1589 123.506 28.6409C116.827 16.1229 124.521 0 124.521 0Z" fill="#EE6B1E"/>
<path fill-rule="evenodd" clip-rule="evenodd" d="M146.341 1.59204L153.123 44.2481C153.123 44.2481 136.948 34.3492 136.086 22.7304C135.225 11.1115 146.341 1.59204 146.341 1.59204Z" fill="#2F7DC0"/>
<path fill-rule="evenodd" clip-rule="evenodd" d="M136.086 22.7304C136.948 34.3328 153.123 44.2482 153.123 44.2482L136.325 18.2635C136.057 19.7401 135.979 21.2497 136.086 22.7469" fill="#21ABD9"/>
<path fill-rule="evenodd" clip-rule="evenodd" d="M0 35.7845H21.9767V42.4416H7.61143V49.9111H19.9687V56.2341H7.61143V70.4638H0V35.7845Z" fill="black"/>
<path fill-rule="evenodd" clip-rule="evenodd" d="M24.8835 46.8961H32.0167V50.0555L32.1156 50.105C33.6453 47.8406 36.2306 46.5208 38.9602 46.6074C39.4756 46.6074 39.991 46.6693 40.494 46.7971V53.648C39.8508 53.4913 39.1911 53.4129 38.5313 53.4088C35.9914 53.4088 33.8845 54.176 32.161 56.1887V70.4432H24.8835V46.8961Z" fill="black"/>
<path fill-rule="evenodd" clip-rule="evenodd" d="M59.3288 56.0072C58.9165 53.4706 57.028 51.9363 54.6819 51.9363C52.3358 51.9363 50.468 53.3263 49.8454 56.0072H59.3288ZM49.8908 60.5937C50.7154 63.8521 53.3872 65.337 56.7394 65.337C59.6009 65.271 62.3799 64.3759 64.7343 62.7509V68.8305C62.4377 70.2699 58.8917 70.9876 55.7828 70.9876C48.023 70.9876 42.4236 66.1495 42.4236 58.7748C42.4236 51.4001 48.2621 46.3682 54.7932 46.3682C60.5657 46.3682 66.0455 50.1999 66.0455 58.1025C66.0496 58.9315 66.0001 59.7565 65.9012 60.5772L49.8908 60.5937Z" fill="black"/>
<path fill-rule="evenodd" clip-rule="evenodd" d="M86.1955 56.0073C85.7626 53.4707 83.8948 51.9364 81.5487 51.9364C79.2026 51.9364 77.3348 53.3264 76.7122 56.0073H86.1955ZM76.7616 60.6062C77.5863 63.8646 80.2581 65.3494 83.6103 65.3494C86.4718 65.2834 89.2508 64.3884 91.6052 62.7633V68.8429C89.3085 70.2824 85.7626 71.0001 82.6496 71.0001C74.8938 71.0001 69.2904 66.162 69.2904 58.7873C69.2904 51.4126 75.133 46.3806 81.66 46.3806C87.4572 46.3806 92.9164 50.2123 92.9164 58.115C92.9205 58.944 92.871 59.7689 92.772 60.5897L76.7616 60.6062Z" fill="black"/>
<path fill-rule="evenodd" clip-rule="evenodd" d="M113.244 53.3139C112.069 52.72 110.774 52.4066 109.459 52.4024C105.628 52.4024 103.571 55.2896 103.571 58.8202C103.571 62.3508 105.583 65.0483 109.174 65.0483C110.617 65.0359 112.023 64.6235 113.244 63.8522V53.3139ZM113.289 69.1687C111.524 70.3648 109.438 71 107.306 70.9876C101.369 70.9876 96.2438 66.3888 96.2438 59.1584C96.2438 51.9281 101.653 46.3723 108.692 46.3723C110.221 46.3517 111.739 46.6446 113.149 47.2344L113.244 47.1849V33.8667H120.521V70.4432H113.388V69.2058L113.289 69.1687Z" fill="black"/>
<path fill-rule="evenodd" clip-rule="evenodd" d="M138.008 64.7142C141.306 64.7142 143.846 62.0291 143.846 58.6799C143.846 55.3308 141.31 52.6416 138.008 52.6416C134.705 52.6416 132.165 55.3226 132.165 58.6799C132.165 62.0373 134.701 64.7142 138.008 64.7142ZM138.008 46.3682C145.524 46.3682 151.128 51.7301 151.128 58.6799C151.128 65.6298 145.524 70.9876 138.008 70.9876C130.491 70.9876 124.888 65.6257 124.888 58.6799C124.888 51.7342 130.487 46.3682 138.008 46.3682Z" fill="black"/>
<path fill-rule="evenodd" clip-rule="evenodd" d="M185.956 56.857C185.956 55.0834 185.672 54.2709 185.099 53.6481C184.456 52.9758 183.557 52.6087 182.625 52.6417C180.947 52.6417 179.223 53.5037 177.978 54.605C178.019 54.9555 178.036 55.3061 178.027 55.6608V70.4432H170.746V56.8322C170.746 55.2525 170.507 54.2956 169.88 53.6233C169.237 52.9469 168.338 52.5798 167.406 52.6169C165.728 52.6169 164.004 53.5285 162.809 54.5348V70.4432H155.519V46.8962H162.702V48.9956L162.796 49.0409C164.763 47.3293 167.274 46.3806 169.88 46.36C172.42 46.36 175.339 47.3664 176.729 49.7132C179.269 47.4612 182.043 46.36 185.012 46.36C187.647 46.36 189.704 47.2674 191.094 48.7069C192.578 50.2412 193.25 52.2993 193.25 55.6526V70.4432H185.956V56.857Z" fill="black"/>
<path fill-rule="evenodd" clip-rule="evenodd" d="M195.052 47.9438H194.166V47.3499H196.582V47.9438H195.695V50.27H195.052V47.9438Z" fill="#EE6B1E"/>
<path fill-rule="evenodd" clip-rule="evenodd" d="M197.077 47.3499H197.769L198.536 48.5872L199.307 47.3499H200V50.27H199.361V48.3645L198.536 49.6142H198.52L197.708 48.3769V50.27H197.077V47.3499Z" fill="#EE6B1E"/>
<path fill-rule="evenodd" clip-rule="evenodd" d="M195.052 47.9438H194.166V47.3499H196.582V47.9438H195.695V50.27H195.052V47.9438Z" fill="black"/>
<path fill-rule="evenodd" clip-rule="evenodd" d="M197.077 47.3499H197.769L198.536 48.5872L199.307 47.3499H200V50.27H199.361V48.3645L198.536 49.6142H198.52L197.708 48.3769V50.27H197.077V47.3499Z" fill="black"/>
</g>
<defs>
<clipPath id="clip0_301_2">
<rect width="200" height="71" fill="white"/>
</clipPath>
</defs>
</svg>
