<svg width="260" height="94" viewBox="0 0 260 94" fill="none" xmlns="http://www.w3.org/2000/svg">
<g clip-path="url(#clip0_4669_11461)">
<mask id="mask0_4669_11461" style="mask-type:luminance" maskUnits="userSpaceOnUse" x="156" y="0" width="43" height="59">
<path d="M156.658 0.999329H198.603V58.3736H156.658V0.999329Z" fill="white"/>
</mask>
<g mask="url(#mask0_4669_11461)">
<path fill-rule="evenodd" clip-rule="evenodd" d="M161.522 0.999176L198.603 58.3739C198.603 58.3739 168.854 54.3675 160.191 38.1363C151.528 21.904 161.522 0.999176 161.522 0.999176Z" fill="#2F7DC0"/>
</g>
<path fill-rule="evenodd" clip-rule="evenodd" d="M189.806 3.06644L198.604 58.3736C198.604 58.3736 177.623 45.5144 176.504 30.4718C175.384 15.4312 189.806 3.06644 189.806 3.06644Z" fill="#2F7DC0"/>
<path fill-rule="evenodd" clip-rule="evenodd" d="M176.504 30.4723C177.622 45.5139 198.603 58.374 198.603 58.374L176.814 24.659C176.486 26.5358 176.356 28.4796 176.504 30.4723Z" fill="#00558C"/>
<path fill-rule="evenodd" clip-rule="evenodd" d="M0.00012207 47.3955H28.5062V56.0276H9.87472V65.7154H25.8972V73.9139H9.87472V92.3586H0.00012207V47.3955Z" fill="white"/>
<path fill-rule="evenodd" clip-rule="evenodd" d="M32.2738 61.8032H41.5271V65.9024L41.652 65.9644C43.7636 62.9838 46.7441 61.4316 50.5327 61.4316C51.154 61.4316 51.8372 61.4925 52.5204 61.6793V70.5611C51.7753 70.3733 50.8434 70.2494 49.9734 70.2494C46.6822 70.2494 43.9493 71.2433 41.7139 73.8523V92.3589H32.2738V61.8032Z" fill="white"/>
<path fill-rule="evenodd" clip-rule="evenodd" d="M76.9494 73.6031C76.391 70.3119 73.9678 68.3242 70.9253 68.3242C68.0057 68.3242 65.4596 70.1261 64.6526 73.6031H76.9494ZM64.7145 79.5652C65.7713 83.7883 69.2492 85.7141 73.5962 85.7141C77.0113 85.7141 80.737 84.5334 83.9672 82.3599V90.2468C80.9867 92.1097 76.391 93.0416 72.3537 93.0416C62.2933 93.0416 55.0267 86.7689 55.0267 77.2049C55.0267 67.4562 62.6039 61.1205 71.0502 61.1205C78.5635 61.1205 85.6443 66.0897 85.6443 76.3349C85.6443 77.3917 85.5824 78.7581 85.4575 79.5652H64.7145Z" fill="white"/>
<path fill-rule="evenodd" clip-rule="evenodd" d="M111.795 73.6031C111.235 70.3119 108.813 68.3242 105.771 68.3242C102.851 68.3242 100.305 70.1261 99.497 73.6031H111.795ZM99.5599 79.5652C100.617 83.7883 104.095 85.7141 108.442 85.7141C111.857 85.7141 115.582 84.5334 118.812 82.3599V90.2468C115.832 92.1097 111.235 93.0416 107.199 93.0416C97.1377 93.0416 89.8721 86.7689 89.8721 77.2049C89.8721 67.4562 97.4494 61.1205 105.895 61.1205C113.409 61.1205 120.49 66.0897 120.49 76.3349C120.49 77.3917 120.428 78.7581 120.303 79.5652H99.5599Z" fill="white"/>
<path fill-rule="evenodd" clip-rule="evenodd" d="M146.877 70.1257C145.51 69.4425 143.833 68.945 141.971 68.945C137.001 68.945 134.331 72.6727 134.331 77.2674C134.331 81.8012 136.94 85.3411 141.598 85.3411C143.648 85.3411 145.51 84.6589 146.877 83.7889V70.1257ZM146.939 90.6829C144.889 92.1103 142.156 93.0412 139.176 93.0412C131.476 93.0412 124.83 87.0801 124.83 77.7019C124.83 68.076 131.847 61.1201 140.977 61.1201C143.275 61.1201 145.138 61.5546 146.753 62.2378L146.877 62.1769V44.9118H156.316V92.359H147.064V90.7439L146.939 90.6829Z" fill="white"/>
<path fill-rule="evenodd" clip-rule="evenodd" d="M178.995 84.9064C183.281 84.9064 186.572 81.4284 186.572 77.0814C186.572 72.7335 183.281 69.2565 178.995 69.2565C174.711 69.2565 171.419 72.7335 171.419 77.0814C171.419 81.4284 174.711 84.9064 178.995 84.9064ZM178.995 61.1209C188.747 61.1209 196.012 68.0758 196.012 77.0814C196.012 86.086 188.747 93.042 178.995 93.042C169.245 93.042 161.98 86.086 161.98 77.0814C161.98 68.0758 169.245 61.1209 178.995 61.1209Z" fill="white"/>
<path fill-rule="evenodd" clip-rule="evenodd" d="M241.205 74.7219C241.205 72.4225 240.834 71.3687 240.089 70.5607C239.219 69.6277 238.101 69.2562 236.858 69.2562C234.685 69.2562 232.449 70.3729 230.834 71.8022C230.897 72.2367 230.897 72.7342 230.897 73.1687V92.3585H221.457V74.7219C221.457 72.6722 221.147 71.4297 220.338 70.5607C219.469 69.6277 218.352 69.2562 217.11 69.2562C214.936 69.2562 212.701 70.4358 211.148 71.7403V92.3585H201.708V61.8028H211.023V64.5366L211.148 64.5976C213.508 62.6109 216.614 61.1206 220.338 61.1206C223.631 61.1206 227.418 62.4241 229.22 65.4676C232.512 62.5479 236.113 61.1206 239.964 61.1206C243.38 61.1206 246.051 62.2992 247.851 64.1641C249.777 66.1518 250.645 68.8217 250.645 73.1687V92.3585H241.205V74.7219Z" fill="white"/>
<path fill-rule="evenodd" clip-rule="evenodd" d="M252.985 63.161H251.833V62.3919H254.97V63.161H253.818V66.1795H252.985V63.161Z" fill="#EE6B1E"/>
<path fill-rule="evenodd" clip-rule="evenodd" d="M255.613 62.3924H256.51L257.506 63.9945L258.502 62.3924H259.4V66.18H258.572V63.7069L257.506 65.326H257.484L256.43 63.7239V66.18H255.613V62.3924Z" fill="#EE6B1E"/>
<path fill-rule="evenodd" clip-rule="evenodd" d="M252.985 63.161H251.833V62.3919H254.97V63.161H253.818V66.1795H252.985V63.161Z" fill="white"/>
<path fill-rule="evenodd" clip-rule="evenodd" d="M255.613 62.3924H256.51L257.506 63.9945L258.502 62.3924H259.4V66.18H258.572V63.7069L257.506 65.326H257.484L256.43 63.7239V66.18H255.613V62.3924Z" fill="white"/>
</g>
<defs>
<clipPath id="clip0_4669_11461">
<rect width="259.7" height="93.492" fill="white"/>
</clipPath>
</defs>
</svg>
