<svg version="1.1" id="Layer_1" xmlns="http://www.w3.org/2000/svg" xmlns:xlink="http://www.w3.org/1999/xlink" x="0px" y="0px" viewBox="26.7 3.2 75.4 103.2" style="enable-background:new 26.7 3.2 75.4 103.2;" xml:space="preserve">
 <style type="text/css">
  .st0{filter:url(#Adobe_OpacityMaskFilter);}
	.st1{fill:#FFFFFF;}
	.st2{mask:url(#mask-2);fill:#2F7DC0;}
	.st3{fill:#2F7DC0;}
	.st4{fill:#00558C;}
 </style>
 <title>
  Desktop/Atom/Nav/Logo/Orange
 </title>
 <desc>
  Created with Sketch.
 </desc>
 <g id="Symbols">
  <g id="Desktop_x2F_Molecule_x2F_NavPrimary_x2F_LogoOrange_x2F_SignedOut_x2F_Shop_x2F_Active" transform="translate(-168.000000, -15.000000)">
   <g id="Desktop_x2F_Atom_x2F_Nav_x2F_Logo_x2F_Orange">
    <g transform="translate(168.000000, 15.000000)">
     <g>
      <g id="Group-3" transform="translate(60.000000, 0.057500)">
       <g id="Clip-2">
       </g>
       <defs>
        <filter id="Adobe_OpacityMaskFilter" filterUnits="userSpaceOnUse" x="-33.3" y="3.1" width="75.4" height="103.2">
         <feColorMatrix type="matrix" values="1 0 0 0 0  0 1 0 0 0  0 0 1 0 0  0 0 0 1 0">
         </feColorMatrix>
        </filter>
       </defs>
       <mask maskUnits="userSpaceOnUse" x="-33.3" y="3.1" width="75.4" height="103.2" id="mask-2">
        <g class="st0">
         <polygon id="path-1" class="st1" points="-33.3,3.1 42.1,3.1 42.1,106.3 -33.3,106.3 								">
         </polygon>
        </g>
       </mask>
       <path id="Fill-1" class="st2" d="M-24.6,3.1l66.7,103.2c0,0-53.5-7.2-69.1-36.4C-42.5,40.7-24.6,3.1-24.6,3.1">
       </path>
      </g>
      <path id="Fill-4" class="st3" d="M86.3,6.9l15.8,99.4c0,0-37.7-23.1-39.7-50.2C60.4,29.1,86.3,6.9,86.3,6.9">
      </path>
      <path id="Fill-6" class="st4" d="M62.4,56.2c2,27,39.7,50.2,39.7,50.2L62.9,45.7C62.3,49.1,62.1,52.6,62.4,56.2">
      </path>
     </g>
    </g>
   </g>
  </g>
 </g>
</svg>