<svg width="265" height="91" viewBox="0 0 265 91" fill="none" xmlns="http://www.w3.org/2000/svg">
<path d="M9.01784 57.1601C8.39689 57.019 7.81828 56.7791 7.28201 56.4404C6.74574 56.1017 6.29414 55.636 5.92722 55.0433L7.36669 52.8841C8.72148 50.8801 9.93515 49.5253 11.0077 48.8197C12.1085 48.1141 13.2939 47.7612 14.564 47.7612C15.7777 47.7612 16.8079 48.1141 17.6546 48.8197C18.5296 49.4971 19.1506 50.4426 19.5175 51.6563C20.1667 50.4144 21.0134 49.4547 22.0577 48.7773C23.1303 48.0999 24.3298 47.7612 25.6564 47.7612C28.4224 47.7612 30.2994 49.1866 31.2872 52.0373C31.9646 50.6825 32.882 49.6382 34.0392 48.9043C35.1964 48.1423 36.5088 47.7612 37.9765 47.7612C39.9805 47.7612 41.5188 48.3963 42.5913 49.6664C43.6638 50.9365 44.2001 52.7288 44.2001 55.0433V60.9281C44.2001 62.4805 44.3977 63.5954 44.7928 64.2728C45.2162 64.9502 45.8795 65.2889 46.7827 65.2889C47.1778 65.2889 47.4742 65.4582 47.6718 65.7969C47.8976 66.1356 48.0105 66.5872 48.0105 67.1517C48.0105 67.6033 47.8835 68.0126 47.6294 68.3795C47.4036 68.7464 47.0226 68.9299 46.4863 68.9299C42.3937 68.9299 40.3474 66.4179 40.3474 61.3938V55.9747C40.3474 54.507 40.0793 53.378 39.543 52.5877C39.0067 51.7974 38.2447 51.4022 37.2568 51.4022C35.7609 51.4022 34.5754 52.2631 33.7005 53.9848C32.8537 55.6783 32.4304 58.0351 32.4304 61.0551V68.3372C32.1481 68.4218 31.8376 68.4924 31.4989 68.5488C31.1602 68.6053 30.8357 68.6335 30.5252 68.6335C29.8478 68.6335 29.1986 68.5347 28.5777 68.3372V56.5674C28.5777 54.9021 28.2813 53.632 27.6886 52.757C27.1241 51.8538 26.2773 51.4022 25.1483 51.4022C24.1322 51.4022 23.2291 51.8115 22.4388 52.63C21.6767 53.4203 21.0699 54.5493 20.6183 56.017C20.1949 57.4565 19.9832 59.1359 19.9832 61.0551V68.3372C19.7009 68.4218 19.3905 68.4924 19.0518 68.5488C18.7131 68.6053 18.3885 68.6335 18.078 68.6335C17.3724 68.6335 16.7373 68.5347 16.1728 68.3372V54.8316C16.1728 52.5454 15.5237 51.4022 14.2253 51.4022C13.802 51.4022 13.3221 51.5998 12.7859 51.995C12.2778 52.3619 11.5863 53.2227 10.7113 54.5775L9.01784 57.1601ZM46.8015 65.2889C47.3943 65.2889 48.0293 65.1054 48.7067 64.7385C49.3841 64.3716 50.0192 63.8071 50.6119 63.045C51.4304 61.916 51.9949 60.5894 52.3054 59.0653C52.6441 57.5412 52.8134 56.0593 52.8134 54.6199V48.354C53.0675 48.2693 53.3638 48.1987 53.7025 48.1423C54.0412 48.0858 54.394 48.0576 54.761 48.0576C55.4101 48.0576 56.0452 48.1564 56.6661 48.354V58.1339C56.6661 62.8192 58.3737 65.1619 61.7889 65.1619C63.7929 65.1619 65.2606 64.3575 66.192 62.7486C67.1517 61.1116 67.6315 58.8818 67.6315 56.0593V48.354C68.2242 48.1564 68.8593 48.0576 69.5367 48.0576C70.2423 48.0576 70.8915 48.1564 71.4842 48.354V66.0086C72.0769 65.5852 72.6837 65.176 73.3047 64.7808C73.9538 64.3575 74.5042 64.0188 74.9558 63.7647C75.5203 64.1034 75.9578 64.5409 76.2683 65.0772C76.5788 65.6135 76.7763 66.2344 76.861 66.94C76.4376 67.2223 75.8873 67.5892 75.2099 68.0408C74.5607 68.4642 73.8974 68.9017 73.22 69.3533C72.5426 69.8049 71.964 70.1859 71.4842 70.4964V80.1916C71.4842 86.7962 69.071 90.0985 64.2445 90.0985C62.0147 90.0985 60.2648 89.4352 58.9947 88.1087C57.7528 86.7821 57.1318 84.9616 57.1318 82.6472C57.1318 77.482 60.6599 72.6414 67.7162 68.1255V66.1356C66.1073 67.9985 63.9623 68.9299 61.2809 68.9299C57.6963 68.9299 55.2267 67.4199 53.8719 64.3998C53.4203 65.2183 52.9263 65.8957 52.3901 66.432C51.628 67.1941 50.7389 67.8009 49.7228 68.2525C48.7349 68.7041 47.6624 68.9299 46.5052 68.9299C46.11 68.9299 45.8137 68.7323 45.6161 68.3372C45.3903 67.9702 45.2774 67.561 45.2774 67.1094C45.2774 66.6296 45.4044 66.2062 45.6584 65.8393C45.8842 65.4723 46.2653 65.2889 46.8015 65.2889ZM60.9422 82.5625C60.9422 83.7762 61.2244 84.7217 61.7889 85.3991C62.3534 86.1047 63.1296 86.4575 64.1175 86.4575C66.5166 86.4575 67.7162 84.3689 67.7162 80.1916V72.6132C63.2002 75.8026 60.9422 79.1191 60.9422 82.5625Z" fill="#ED6B1F"/>
<mask id="mask0_131_535" style="mask-type:luminance" maskUnits="userSpaceOnUse" x="182" y="8" width="30" height="40">
<path fill-rule="evenodd" clip-rule="evenodd" d="M182.854 8.82031H211.346V47.7927H182.854V8.82031Z" fill="white"/>
</mask>
<g mask="url(#mask0_131_535)">
<path fill-rule="evenodd" clip-rule="evenodd" d="M186.158 8.81982L211.346 47.7925C211.346 47.7925 191.138 45.0711 185.254 34.0458C179.369 23.0198 186.158 8.81982 186.158 8.81982Z" fill="#DB5C05"/>
</g>
<path fill-rule="evenodd" clip-rule="evenodd" d="M205.37 9.99878L211.346 46.7387C211.346 46.7387 197.095 38.1965 196.335 28.2038C195.574 18.2125 205.37 9.99878 205.37 9.99878" fill="#2F7DC0"/>
<path fill-rule="evenodd" clip-rule="evenodd" d="M196.336 28.2042C197.096 38.1962 211.347 46.7391 211.347 46.7391L196.547 24.3425C196.324 25.5893 196.235 26.8805 196.336 28.2042" fill="#17599C"/>
<path fill-rule="evenodd" clip-rule="evenodd" d="M76.4423 39.4463H95.8055V45.1805H83.1498V51.616H94.0333V57.0621H83.1498V69.3148H76.4423V39.4463Z" fill="white"/>
<path fill-rule="evenodd" clip-rule="evenodd" d="M98.3655 49.0181H104.651V51.7412L104.736 51.7823C106.17 49.8024 108.195 48.7712 110.768 48.7712C111.19 48.7712 111.654 48.8117 112.118 48.9358V54.8358C111.612 54.7111 110.979 54.6288 110.388 54.6288C108.153 54.6288 106.296 55.289 104.778 57.0221V69.3159H98.3655V49.0181Z" fill="white"/>
<path fill-rule="evenodd" clip-rule="evenodd" d="M128.711 56.856C128.332 54.6697 126.686 53.3493 124.619 53.3493C122.636 53.3493 120.907 54.5463 120.358 56.856H128.711ZM120.401 60.8166C121.118 63.6219 123.481 64.9012 126.434 64.9012C128.753 64.9012 131.284 64.1169 133.478 62.6731V67.9123C131.454 69.1497 128.332 69.7688 125.59 69.7688C118.756 69.7688 113.82 65.6019 113.82 59.2487C113.82 52.7727 118.967 48.564 124.704 48.564C129.808 48.564 134.617 51.865 134.617 58.6707C134.617 59.3727 134.575 60.2804 134.491 60.8166H120.401Z" fill="white"/>
<path fill-rule="evenodd" clip-rule="evenodd" d="M152.381 56.856C152.001 54.6697 150.356 53.3493 148.289 53.3493C146.306 53.3493 144.577 54.5463 144.028 56.856H152.381ZM144.071 60.8166C144.788 63.6219 147.151 64.9012 150.104 64.9012C152.423 64.9012 154.954 64.1169 157.148 62.6731V67.9123C155.124 69.1497 152.001 69.7688 149.26 69.7688C142.425 69.7688 137.49 65.6019 137.49 59.2487C137.49 52.7727 142.637 48.564 148.373 48.564C153.478 48.564 158.287 51.865 158.287 58.6707C158.287 59.3727 158.245 60.2804 158.161 60.8166H144.071Z" fill="white"/>
<path fill-rule="evenodd" clip-rule="evenodd" d="M176.211 54.5462C175.283 54.0923 174.144 53.7619 172.878 53.7619C169.503 53.7619 167.689 56.2382 167.689 59.2904C167.689 62.3021 169.462 64.6536 172.625 64.6536C174.018 64.6536 175.283 64.2004 176.211 63.6225V54.5462ZM176.253 68.2021C174.861 69.1503 173.005 69.7687 170.98 69.7687C165.75 69.7687 161.236 65.8088 161.236 59.579C161.236 53.1846 166.002 48.5639 172.203 48.5639C173.765 48.5639 175.03 48.8525 176.127 49.3063L176.211 49.2659V37.7969H182.623V69.3155H176.338V68.2426L176.253 68.2021Z" fill="white"/>
<path fill-rule="evenodd" clip-rule="evenodd" d="M198.028 64.3644C200.939 64.3644 203.175 62.054 203.175 59.1664C203.175 56.2781 200.939 53.9684 198.028 53.9684C195.118 53.9684 192.882 56.2781 192.882 59.1664C192.882 62.054 195.118 64.3644 198.028 64.3644M198.028 48.564C204.652 48.564 209.587 53.1841 209.587 59.1664C209.587 65.148 204.652 69.7688 198.028 69.7688C191.405 69.7688 186.47 65.148 186.47 59.1664C186.47 53.1841 191.405 48.564 198.028 48.564" fill="white"/>
<path fill-rule="evenodd" clip-rule="evenodd" d="M240.285 57.5992C240.285 56.0717 240.033 55.3717 239.527 54.8349C238.936 54.2152 238.177 53.9684 237.333 53.9684C235.856 53.9684 234.338 54.7102 233.241 55.6597C233.283 55.9483 233.283 56.2787 233.283 56.5674V69.315H226.871V57.5992C226.871 56.2376 226.66 55.4122 226.111 54.8349C225.521 54.2152 224.762 53.9684 223.918 53.9684C222.441 53.9684 220.924 54.752 219.869 55.6185V69.315H213.456V49.0172H219.784V50.8332L219.869 50.8737C221.472 49.5539 223.581 48.564 226.111 48.564C228.348 48.564 230.92 49.4299 232.144 51.4516C234.381 49.5121 236.826 48.564 239.442 48.564C241.762 48.564 243.577 49.3469 244.799 50.5857C246.108 51.9061 246.698 53.6797 246.698 56.5674V69.315H240.285V57.5992Z" fill="white"/>
<path fill-rule="evenodd" clip-rule="evenodd" d="M248.286 49.9189H247.504V49.408H249.635V49.9189H248.852V51.924H248.286V49.9189Z" fill="#1E1E1E"/>
<path fill-rule="evenodd" clip-rule="evenodd" d="M250.071 49.408H250.681L251.357 50.4722L252.033 49.408H252.643V51.924H252.081V50.2812L251.357 51.3567H251.342L250.626 50.2924V51.924H250.071V49.408Z" fill="#1E1E1E"/>
<path fill-rule="evenodd" clip-rule="evenodd" d="M248.286 49.9189H247.504V49.408H249.635V49.9189H248.852V51.924H248.286V49.9189Z" fill="#1E1E1E"/>
<path fill-rule="evenodd" clip-rule="evenodd" d="M250.071 49.408H250.681L251.357 50.4722L252.033 49.408H252.643V51.924H252.081V50.2812L251.357 51.3567H251.342L250.626 50.2924V51.924H250.071V49.408Z" fill="white"/>
</svg>
