<svg width="22" height="29" viewBox="0 0 22 29" fill="none" xmlns="http://www.w3.org/2000/svg">
<mask id="mask0_560_3376" style="mask-type:luminance" maskUnits="userSpaceOnUse" x="2" y="2" width="18" height="25">
<path fill-rule="evenodd" clip-rule="evenodd" d="M2 2H19.8393V26.4011H2V2Z" fill="white"/>
</mask>
<g mask="url(#mask0_560_3376)">
<path fill-rule="evenodd" clip-rule="evenodd" d="M4.06881 1.99988L19.8393 26.4011C19.8393 26.4011 7.18688 24.6972 3.50255 17.7941C-0.181785 10.8906 4.06881 1.99988 4.06881 1.99988" fill="#DB5C05"/>
</g>
<path fill-rule="evenodd" clip-rule="evenodd" d="M16.098 2.87909L19.8397 26.401C19.8397 26.401 10.9167 20.932 10.4409 14.5345C9.96471 8.13775 16.098 2.87909 16.098 2.87909" fill="#17599C"/>
<path fill-rule="evenodd" clip-rule="evenodd" d="M10.4413 14.5347C10.9171 20.9318 19.8401 26.4012 19.8401 26.4012L10.5734 12.0623C10.4337 12.8605 10.3784 13.6872 10.4413 14.5347" fill="#2F7DC1"/>
</svg>
